<?xml version="1.0" standalone="no"?>
<!DOCTYPE svg PUBLIC "-//W3C//DTD SVG 20010904//EN"
 "http://www.w3.org/TR/2001/REC-SVG-20010904/DTD/svg10.dtd">
<svg version="1.0" xmlns="http://www.w3.org/2000/svg"
 width="170.000000pt" height="170.000000pt" viewBox="0 0 170.000000 170.000000"
 preserveAspectRatio="xMidYMid meet">

<g transform="translate(0.000000,170.000000) scale(0.100000,-0.100000)"
fill="#000000" stroke="none">
<path d="M640 1254 c-214 -103 -215 -104 -215 -136 -1 -18 -9 -49 -20 -68 -13
-24 -19 -55 -20 -101 0 -56 4 -73 30 -115 30 -48 102 -100 127 -92 7 3 -10 15
-36 28 -52 25 -106 95 -106 137 l0 23 218 2 c119 1 226 0 237 -1 11 -1 121 -5
243 -8 l224 -5 -7 -26 c-17 -70 -100 -142 -163 -142 -12 0 -22 -1 -22 -2 0 -2
9 -32 20 -66 34 -109 19 -204 -34 -218 -36 -9 -56 11 -56 56 0 29 8 45 35 73
19 20 35 43 35 51 0 29 -19 26 -45 -6 l-27 -33 6 30 c5 24 4 26 -4 13 -6 -10
-10 -28 -8 -40 1 -13 -2 -44 -6 -70 l-8 -48 -144 0 -144 0 0 119 c0 182 -24
222 -60 100 -12 -39 -24 -69 -26 -66 -3 2 -13 33 -22 68 -12 44 -23 65 -35 67
-26 5 -38 -40 -44 -171 l-6 -118 -61 3 -61 3 -5 150 -6 150 -2 -157 -2 -158
80 0 80 0 0 83 c0 176 24 243 49 133 14 -64 36 -98 49 -78 5 8 15 38 21 68 7
30 17 54 22 54 5 0 9 -57 9 -130 l0 -130 164 0 c136 0 165 -3 170 -15 7 -19
56 -19 82 0 12 9 42 14 82 15 l62 0 0 162 c0 145 2 166 21 206 34 70 36 121 5
187 -14 32 -26 70 -26 85 0 27 -12 35 -207 134 -113 58 -211 106 -217 105 -6
0 -108 -48 -226 -105z m435 -6 c150 -75 205 -107 205 -120 0 -23 -5 -23 -41 4
-45 34 -150 37 -204 6 -50 -30 -93 -91 -103 -148 -4 -25 -11 -44 -15 -42 -4 1
-33 2 -66 2 l-59 0 -6 44 c-21 140 -185 213 -308 137 -47 -30 -49 -30 -46 -9
2 17 44 41 218 124 118 57 216 103 217 103 2 1 95 -45 208 -101z m-478 -104
c-3 -3 -12 -4 -19 -1 -8 3 -5 6 6 6 11 1 17 -2 13 -5z m561 -1 c-10 -2 -28 -2
-40 0 -13 2 -5 4 17 4 22 1 32 -1 23 -4z m-658 -38 c0 -20 -5 -25 -25 -25 -31
0 -31 6 -2 31 28 23 27 24 27 -6z m160 0 c0 -24 -2 -25 -75 -25 -73 0 -75 1
-75 25 0 24 2 25 75 25 73 0 75 -1 75 -25z m70 -21 c0 -2 -13 -4 -30 -4 -26 0
-30 4 -30 26 l0 25 30 -21 c17 -12 30 -23 30 -26z m316 0 c-6 -15 -56 -20 -56
-5 0 5 12 18 28 29 22 17 28 18 30 6 2 -8 1 -22 -2 -30z m154 16 l0 -30 -70 0
-70 0 0 30 0 30 70 0 70 0 0 -30z m60 -5 l23 -25 -31 0 c-27 0 -32 4 -32 25 0
14 4 25 8 25 5 0 19 -11 32 -25z m-760 -55 c0 -27 -3 -30 -30 -30 -27 0 -30 3
-30 30 0 27 3 30 30 30 27 0 30 -3 30 -30z m160 0 l0 -30 -75 0 -75 0 0 30 0
30 75 0 75 0 0 -30z m70 0 c0 -27 -3 -30 -30 -30 -27 0 -30 3 -30 30 0 27 3
30 30 30 27 0 30 -3 30 -30z m33 -10 c3 -13 0 -20 -9 -20 -8 0 -14 10 -14 26
0 28 15 25 23 -6z m287 0 c0 -27 -3 -30 -30 -30 -27 0 -30 3 -30 30 0 27 3 30
30 30 27 0 30 -3 30 -30z m150 0 l0 -30 -70 0 -70 0 0 30 0 30 70 0 70 0 0
-30z m72 5 c6 -30 2 -35 -29 -35 -19 0 -23 5 -23 30 0 25 4 30 24 30 17 0 25
-7 28 -25z m37 -5 c8 -24 7 -30 -5 -30 -9 0 -14 10 -14 30 0 17 2 30 4 30 2 0
9 -13 15 -30z m-879 0 c0 -11 -7 -20 -15 -20 -13 0 -14 4 -5 20 6 11 13 20 15
20 3 0 5 -9 5 -20z m544 -2 c-8 -28 -12 -33 -20 -25 -9 8 6 47 17 47 6 0 7
-10 3 -22z m-546 -61 c3 -22 -1 -27 -17 -27 -23 0 -24 3 -15 38 8 30 28 23 32
-11z m70 1 c3 -25 0 -28 -27 -28 -28 0 -31 3 -31 31 0 27 3 30 28 27 21 -2 28
-9 30 -30z m160 0 l3 -28 -75 0 c-73 0 -76 1 -76 23 0 35 8 38 80 35 63 -3 65
-4 68 -30z m70 0 c3 -25 0 -28 -27 -28 -26 0 -31 4 -31 23 0 30 9 39 35 35 13
-2 21 -12 23 -30z m46 16 c11 -29 6 -44 -14 -44 -14 0 -20 7 -20 23 0 37 23
51 34 21z m196 -24 c0 -20 -5 -30 -15 -30 -10 0 -15 10 -15 30 0 20 5 30 15
30 10 0 15 -10 15 -30z m80 0 c0 -27 -3 -30 -30 -30 -27 0 -30 3 -30 30 0 27
3 30 30 30 27 0 30 -3 30 -30z m150 0 l0 -30 -70 0 -70 0 0 30 0 30 70 0 70 0
0 -30z m75 0 c0 -20 -6 -26 -28 -28 -24 -3 -27 0 -27 28 0 28 3 31 27 28 22
-2 28 -8 28 -28z m45 0 c0 -20 -5 -30 -15 -30 -10 0 -15 10 -15 30 0 20 5 30
15 30 10 0 15 -10 15 -30z m-40 -320 l0 -150 -56 0 c-53 0 -55 1 -48 23 12 35
7 128 -10 175 -14 40 -14 43 2 48 9 3 37 15 62 28 25 13 46 24 48 25 1 0 2
-66 2 -149z m-160 4 c0 -3 -5 -14 -10 -25 -16 -28 -32 -23 -18 6 10 22 28 35
28 19z"/>
<path d="M792 718 c-17 -17 -15 -38 3 -38 18 0 20 17 3 23 -7 2 -1 4 15 4 15
0 27 -3 27 -8 0 -5 -5 -9 -12 -9 -6 0 -8 -3 -5 -6 4 -4 14 -1 23 7 14 12 14
14 -2 26 -22 16 -37 16 -52 1z"/>
<path d="M787 653 c-11 -10 -8 -63 3 -63 6 0 10 16 10 35 0 36 -2 40 -13 28z"/>
<path d="M836 644 c-21 -20 -20 -50 0 -58 24 -9 44 -7 44 4 0 6 -9 10 -19 10
-11 0 -22 4 -26 9 -7 12 24 43 36 36 5 -4 9 -1 9 4 0 16 -26 13 -44 -5z"/>
<path d="M911 620 c0 -32 2 -41 9 -30 7 12 12 12 22 2 6 -6 17 -12 22 -12 6 0
2 7 -8 15 -16 12 -17 18 -8 27 7 7 12 17 12 22 0 6 -5 5 -12 -2 -17 -17 -26
-15 -31 6 -3 9 -5 -3 -6 -28z"/>
<path d="M986 629 c-7 -38 -1 -49 27 -48 17 1 18 2 5 6 -21 5 -23 19 -5 26 9
4 8 8 -3 16 -12 8 -10 12 10 20 l25 10 -26 0 c-22 1 -28 -5 -33 -30z"/>
</g>
</svg>
